<svg width="169" height="113" viewBox="0 0 169 113" fill="none" xmlns="http://www.w3.org/2000/svg">
<path d="M55.1335 55.6816H52.1523L56.7529 46.7873H60.0534L64.4431 55.6816H61.1315L60.4627 54.0782H55.8504L55.1335 55.6816ZM59.6617 52.1421L58.2406 48.9059L56.7352 52.1421H59.6617ZM65.1139 46.7871H67.975V55.6811H65.1139L65.1139 46.7871ZM69.4347 46.7871H72.2957V48.6017H69.4347V46.7871ZM69.4347 49.4792H72.2957V55.6713H69.4347V49.4792Z" fill="#FF6600"/>
<path d="M73.8603 46.7871H76.7208V50.3702C77.0617 50.0194 77.4423 49.7564 77.8637 49.5808C78.2848 49.4062 78.7462 49.3178 79.2471 49.3178C80.2219 49.3178 81.0052 49.6296 81.5968 50.2532C82.188 50.8766 82.4835 51.703 82.4835 52.7328C82.4835 53.6699 82.192 54.4203 81.6082 54.9857C81.0248 55.5504 80.2506 55.8327 79.2834 55.8327C78.7507 55.8327 78.2671 55.7358 77.8333 55.5409C77.4007 55.346 77.03 55.059 76.7208 54.6817C76.7208 54.8867 76.7136 55.0731 76.6969 55.2421C76.6812 55.4111 76.6547 55.5569 76.6184 55.6814H73.7579C73.79 55.5654 73.8145 55.4193 73.8329 55.2454C73.8512 55.0705 73.8603 54.871 73.8603 54.6457V46.7871ZM79.592 52.6083C79.592 52.0613 79.4634 51.6306 79.2062 51.3148C78.95 50.9987 78.6009 50.8412 78.1601 50.8412C77.6863 50.8412 77.3241 50.9932 77.0735 51.2968C76.8232 51.6005 76.6969 52.0407 76.6969 52.6201C76.6969 53.1671 76.8238 53.5919 77.0761 53.8956C77.3294 54.1982 77.6818 54.3499 78.1356 54.3499C78.5813 54.3499 78.9353 54.1937 79.198 53.8802C79.4608 53.5664 79.592 53.1426 79.592 52.6083ZM89.0096 54.6878C88.7377 55.0462 88.3833 55.3111 87.9501 55.4838C87.5163 55.6564 86.9914 55.7432 86.3733 55.7432C85.4928 55.7432 84.8171 55.5863 84.3437 55.2731C83.8699 54.9597 83.6333 54.5159 83.6333 53.9413C83.6333 53.1578 84.0413 52.5922 84.8577 52.244C85.6751 51.8971 87.0425 51.715 88.9622 51.6989C88.9622 51.6872 88.9638 51.6639 88.9677 51.6298C88.972 51.5958 88.9739 51.5709 88.9739 51.5548C88.9739 51.2381 88.8784 51.0013 88.6883 50.8447C88.4972 50.6888 88.2119 50.6102 87.83 50.6102C87.4858 50.6102 87.2205 50.6675 87.0359 50.7818C86.852 50.8958 86.7418 51.0678 86.7058 51.2961H84.0652C84.078 50.6089 84.4026 50.0972 85.0416 49.7622C85.6803 49.4264 86.6534 49.2587 87.9626 49.2587C89.2197 49.2587 90.1561 49.4543 90.7706 49.846C91.3835 50.2371 91.6917 50.8339 91.6917 51.6334V54.791C91.6917 54.9865 91.7012 55.1451 91.7192 55.2653C91.7372 55.3858 91.7676 55.4972 91.8121 55.6017H89.1614C89.1081 55.454 89.0708 55.3046 89.0463 55.1549C89.0224 55.0046 89.0096 54.8486 89.0096 54.6878ZM88.9497 52.9191C88.0241 52.9191 87.3936 52.9797 87.0582 53.0999C86.7221 53.2204 86.5539 53.431 86.5539 53.732C86.5539 53.9364 86.6357 54.0959 86.7984 54.2099C86.9616 54.3242 87.1917 54.3816 87.4901 54.3816C87.9766 54.3816 88.3415 54.2679 88.5843 54.0416C88.828 53.8149 88.9497 53.4729 88.9497 53.016V52.9191ZM92.9935 46.7871H95.8549V50.3702C96.1949 50.0194 96.5764 49.7564 96.9975 49.5808C97.4183 49.4062 97.8803 49.3178 98.3809 49.3178C99.355 49.3178 100.138 49.6296 100.73 50.2532C101.321 50.8766 101.617 51.703 101.617 52.7328C101.617 53.6699 101.325 54.4203 100.741 54.9857C100.158 55.5504 99.3838 55.8327 98.4166 55.8327C97.8833 55.8327 97.4003 55.7358 96.9674 55.5409C96.5345 55.346 96.1635 55.059 95.8549 54.6817C95.8549 54.8867 95.8468 55.0731 95.8304 55.2421C95.8147 55.4111 95.7885 55.5569 95.7519 55.6814H92.8914C92.9228 55.5654 92.9487 55.4193 92.9664 55.2454C92.9853 55.0705 92.9935 54.871 92.9935 54.6457V46.7871ZM98.7255 52.6083C98.7255 52.0613 98.5969 51.6306 98.3404 51.3148C98.0835 50.9987 97.7344 50.8412 97.293 50.8412C96.8199 50.8412 96.4576 50.9932 96.207 51.2968C95.9564 51.6005 95.8304 52.0407 95.8304 52.6201C95.8304 53.1671 95.9567 53.5919 96.2093 53.8956C96.4632 54.1982 96.8156 54.3499 97.2694 54.3499C97.7148 54.3499 98.0678 54.1937 98.3312 53.8802C98.5943 53.5664 98.7255 53.1426 98.7255 52.6083ZM108.143 54.6878C107.87 55.0462 107.518 55.3111 107.084 55.4838C106.65 55.6564 106.125 55.7432 105.507 55.7432C104.628 55.7432 103.95 55.5863 103.477 55.2731C103.004 54.9597 102.767 54.5159 102.767 53.9413C102.767 53.1578 103.175 52.5922 103.991 52.244C104.809 51.8971 106.177 51.715 108.096 51.6989C108.096 51.6872 108.098 51.6639 108.102 51.6298C108.106 51.5958 108.107 51.5709 108.107 51.5548C108.107 51.2381 108.012 51.0013 107.822 50.8447C107.632 50.6888 107.345 50.6102 106.965 50.6102C106.619 50.6102 106.354 50.6675 106.17 50.7818C105.986 50.8958 105.876 51.0678 105.839 51.2961H103.2C103.212 50.6089 103.537 50.0972 104.175 49.7622C104.814 49.4264 105.788 49.2587 107.097 49.2587C108.354 49.2587 109.289 49.4543 109.905 49.846C110.519 50.2371 110.826 50.8339 110.826 51.6334V54.791C110.826 54.9865 110.835 55.1451 110.853 55.2653C110.871 55.3858 110.903 55.4972 110.946 55.6017H108.295C108.242 55.454 108.204 55.3046 108.18 55.1549C108.156 55.0046 108.143 54.8486 108.143 54.6878ZM108.083 52.9191C107.158 52.9191 106.528 52.9797 106.191 53.0999C105.856 53.2204 105.688 53.431 105.688 53.732C105.688 53.9364 105.77 54.0959 105.932 54.2099C106.096 54.3242 106.325 54.3816 106.624 54.3816C107.11 54.3816 107.475 54.2679 107.719 54.0416C107.962 53.8149 108.083 53.4729 108.083 53.016V52.9191ZM119.534 52.3129V51.2746H123.272V54.5461C122.697 55.0031 122.106 55.347 121.496 55.5779C120.887 55.8078 120.26 55.9231 119.618 55.9231C118.752 55.9231 117.964 55.7377 117.256 55.3657C116.548 54.9942 116.015 54.457 115.652 53.7541C115.291 53.0499 115.111 52.2654 115.111 51.3974C115.111 50.5382 115.291 49.7354 115.65 48.9896C116.008 48.2441 116.525 47.6909 117.2 47.3293C117.873 46.9676 118.65 46.7872 119.527 46.7872C120.166 46.7872 120.743 46.8907 121.257 47.0977C121.773 47.3053 122.178 47.5936 122.471 47.964C122.764 48.3342 122.986 48.8163 123.138 49.4118L122.081 49.7004C121.948 49.2507 121.784 48.8959 121.588 48.6381C121.392 48.3794 121.112 48.1727 120.746 48.0178C120.382 47.8622 119.979 47.7852 119.534 47.7852C119.001 47.7852 118.541 47.8664 118.152 48.0296C117.763 48.193 117.451 48.4079 117.213 48.6738C116.974 48.9392 116.789 49.2313 116.656 49.5494C116.432 50.097 116.321 50.6919 116.321 51.3316C116.321 52.1219 116.455 52.7819 116.726 53.3139C116.996 53.8455 117.389 54.2402 117.907 54.498C118.422 54.7558 118.972 54.8848 119.551 54.8848C120.056 54.8848 120.548 54.7872 121.03 54.591C121.509 54.3958 121.875 54.1865 122.123 53.9647V52.3129H119.534ZM124.987 55.8027V49.3991H125.964V50.3713C126.215 49.9179 126.445 49.6195 126.657 49.4748C126.868 49.3306 127.101 49.2586 127.355 49.2586C127.721 49.2586 128.094 49.3736 128.473 49.6041L128.094 50.61C127.829 50.4551 127.564 50.3778 127.299 50.3778C127.062 50.3778 126.85 50.4486 126.66 50.5911C126.472 50.7342 126.337 50.9327 126.256 51.1852C126.136 51.5714 126.075 51.993 126.075 52.4512V55.8027H124.987ZM128.69 52.6014C128.69 51.4167 129.02 50.5392 129.679 49.9686C130.228 49.4949 130.899 49.2584 131.69 49.2584C132.57 49.2584 133.289 49.546 133.848 50.1222C134.405 50.6983 134.684 51.4949 134.684 52.511C134.684 53.3345 134.561 53.982 134.314 54.4534C134.067 54.9254 133.708 55.2916 133.235 55.5529C132.764 55.813 132.248 55.9444 131.69 55.9444C130.794 55.9444 130.071 55.6568 129.519 55.0826C128.965 54.5084 128.69 53.6817 128.69 52.6014ZM129.808 52.603C129.808 53.4232 129.987 54.0364 130.343 54.4445C130.7 54.853 131.149 55.057 131.69 55.057C132.227 55.057 132.675 54.8513 133.03 54.4419C133.387 54.0321 133.565 53.4065 133.565 52.5673C133.565 51.7753 133.387 51.1756 133.028 50.7675C132.669 50.36 132.223 50.1549 131.69 50.1549C131.149 50.1549 130.7 50.3587 130.343 50.7645C129.987 51.1703 129.808 51.7832 129.808 52.603ZM140.308 55.662V54.7148C139.81 55.4399 139.135 55.8035 138.281 55.8035C137.902 55.8035 137.551 55.7311 137.224 55.586C136.897 55.4419 136.654 55.2601 136.496 55.0407C136.338 54.8215 136.227 54.5536 136.162 54.2365C136.118 54.0239 136.096 53.6862 136.096 53.2241V49.2584H137.185V52.8058C137.185 53.3721 137.206 53.7534 137.251 53.9499C137.318 54.2352 137.463 54.4589 137.683 54.6217C137.903 54.7839 138.177 54.8661 138.501 54.8661C138.826 54.8661 139.13 54.7822 139.416 54.6148C139.7 54.4494 139.901 54.2221 140.019 53.9352C140.137 53.6483 140.197 53.2319 140.197 52.6843V49.2584H141.284V55.662H140.308ZM143.503 58.2534V49.3991H144.489V50.2318C144.722 49.9068 144.986 49.6635 145.279 49.5013C145.572 49.3389 145.928 49.2586 146.344 49.2586C146.89 49.2586 147.372 49.3978 147.789 49.6792C148.207 49.9606 148.522 50.3572 148.734 50.8692C148.947 51.3811 149.054 51.9425 149.054 52.5524C149.054 53.2069 148.936 53.7965 148.701 54.3205C148.467 54.8446 148.125 55.2465 147.679 55.5253C147.232 55.8043 146.762 55.9442 146.27 55.9442C145.908 55.9442 145.585 55.8682 145.297 55.7166C145.011 55.5646 144.774 55.3723 144.591 55.1404V58.2534H143.503ZM144.48 52.6379C144.48 53.4624 144.646 54.0713 144.979 54.4653C145.312 54.86 145.713 55.0569 146.187 55.0569C146.667 55.0569 147.078 54.8528 147.421 54.444C147.765 54.0366 147.935 53.4044 147.935 52.5475C147.935 51.7316 147.768 51.1204 147.433 50.7142C147.099 50.3087 146.699 50.1047 146.235 50.1047C145.773 50.1047 145.366 50.3215 145.012 50.7532C144.658 51.1859 144.48 51.8138 144.48 52.6379Z" fill="#FF6600"/>
<path d="M23.7042 63.4736C23.5455 63.4553 23.2975 63.3141 23.1214 63.1726C21.4461 61.53 23.5972 59.641 26.0856 58.5463V55.4212C26.6673 55.7923 26.9854 55.8093 27.0024 55.8624L28.9074 53.9734L28.2723 52.3481C33.8469 50.4234 36.0866 49.6815 40.6203 48.9229L39.8075 48.1627L41.1317 47.4044C44.1829 48.4116 47.0594 48.6756 46.5643 51.2361C46.6883 49.5056 44.536 48.8341 41.2551 47.9163L40.6203 48.3042L41.8369 49.3111C36.4046 50.2469 33.0704 51.3068 29.1014 52.6838L29.6478 54.0969L27.6552 56.0566C27.9909 56.1451 31.4655 57.3101 35.0807 54.7854C35.0807 54.7854 35.1521 54.732 35.1521 54.7146C35.047 54.5381 34.799 54.3432 34.4996 54.0792C35.5581 54.1499 36.2449 55.0854 36.1219 56.0566H35.6282C35.6632 55.7386 35.5925 55.4031 35.4875 55.1739C32.6827 57.2224 29.4368 57.5227 26.6673 56.5512V58.9702C25.3268 59.4471 22.9271 60.9292 22.9454 62.3609C23.0334 63.0491 23.3864 63.2961 23.7042 63.4736Z" fill="black"/>
<path d="M35.1601 62.6634C32.1593 64.1819 29.2855 65.4004 24.8578 65.5769C19.0898 65.4528 18.1903 61.6204 20.9241 57.6129C23.4995 53.5693 27.5922 49.9132 34.1013 47.6351C35.9879 46.9659 38.7577 46.2057 41.4389 46.1703C45.2845 46.1346 49.0248 47.3357 48.7771 51.0265C48.6357 53.852 44.562 57.8422 42.409 60.7033C41.4915 61.9562 41.3325 62.7692 42.9021 62.6987C48.601 62.327 53.7689 60.3502 58.5667 58.3014C55.3218 60.5087 38.5454 68.8252 38.476 63.158C38.493 62.4331 38.8278 61.6742 39.3745 60.8622C39.9046 60.0495 40.6451 59.2018 41.4035 58.3368C42.55 57.0302 45.3898 53.9047 46.3423 52.0324C47.9473 48.4834 44.3493 48.3066 41.2445 47.2122L39.9206 47.9705L40.7334 48.7307C36.1997 49.4897 33.9599 50.2312 28.3854 52.1562L29.0205 53.7812L27.1155 55.6702C27.0628 55.6175 26.7804 55.6004 26.1983 55.229V58.3541C23.7103 59.4491 21.5589 61.3381 23.2342 62.9804C23.4105 63.1219 23.6586 63.2631 23.8172 63.2814C26.8684 65.0119 35.1762 62.6634 35.1601 62.6634ZM53.1038 64.6963H53.4988C53.5829 64.6963 53.6467 64.6872 53.6938 64.6727C53.7435 64.6547 53.7789 64.6243 53.8024 64.5889C53.826 64.5486 53.84 64.51 53.84 64.4651C53.84 64.3992 53.8148 64.3445 53.7684 64.3026C53.7206 64.2613 53.6467 64.2404 53.5446 64.2404H53.1038V64.6963ZM52.9183 65.4831V64.0838H53.5364C53.6594 64.0838 53.7553 64.0966 53.8181 64.1192C53.8832 64.1467 53.933 64.1886 53.9712 64.2551C54.0118 64.3177 54.0301 64.3874 54.0301 64.4651C54.0301 64.564 53.9974 64.6488 53.9356 64.717C53.8705 64.7828 53.773 64.826 53.6391 64.8467C53.6885 64.8689 53.7252 64.8916 53.7507 64.9158C53.8024 64.9672 53.8554 65.0272 53.9016 65.1018L54.1447 65.4831H53.913L53.7311 65.1949C53.6768 65.1074 53.6296 65.0455 53.5973 64.999C53.5616 64.9551 53.5312 64.9236 53.5027 64.9053C53.4742 64.8883 53.4487 64.8739 53.4199 64.867C53.3983 64.865 53.3653 64.8617 53.3168 64.8617H53.1038V65.4831H52.9183Z" fill="#FF6600"/>
<path d="M53.4799 66.1301C54.2139 66.1301 54.8097 65.5324 54.8097 64.8009C54.8097 64.0659 54.2139 63.4691 53.4799 63.4691C52.748 63.4691 52.1525 64.0659 52.1525 64.8009C52.1525 65.5324 52.748 66.1301 53.4799 66.1301ZM52.3583 64.8009C52.3583 64.1809 52.8605 63.6778 53.4799 63.6778C54.0987 63.6778 54.6019 64.1809 54.6019 64.8009C54.6019 65.4177 54.0987 65.9218 53.4799 65.9218C52.8605 65.9218 52.3583 65.4177 52.3583 64.8009ZM65.1139 58.5263V66.0649C65.6371 66.0649 66.2215 65.5903 66.2215 65.0662V64.6712H66.8488C67.2686 64.6492 67.7518 64.0603 67.7518 63.7661V62.0888C67.7518 61.7733 67.3958 61.545 67.2273 61.4189C67.3958 61.2712 67.7518 61.0203 67.7518 60.7045V58.5263H65.1139ZM66.6639 61.0203C66.6639 61.1454 66.5598 61.3564 66.4332 61.4818C66.4136 61.5041 66.3501 61.5663 66.3501 61.5663C66.3403 61.5748 66.3292 61.587 66.3076 61.587H66.6639V63.7661H66.2241V59.4481H66.6639V61.0203ZM70.8508 63.4091V60.034H68.1919V64.6472H69.5109C69.721 64.6263 69.9732 64.5415 70.1804 64.3954C70.308 64.3112 70.4127 64.2283 70.517 64.1225C70.7055 63.9129 70.8508 63.662 70.8508 63.4091ZM69.2396 60.9155H69.8044V63.7864H69.2396V60.9155ZM67.919 58.5263V59.4481H71.108V66.0649C71.4643 66.0649 72.2345 65.7206 72.2345 65.004V59.4481C72.4642 59.4481 72.6537 58.7772 72.6537 58.5263H67.919ZM77.458 65.1958V64.4913H79.6942C80.0174 64.4913 80.3093 63.939 80.4817 63.6403H77.458V63.0435H79.1395C79.6173 63.0435 80.3947 62.3815 80.4169 62.0409V58.5263H73.222V63.0435H76.1162V63.6403H73.222V64.4913H76.1162V65.1958H73.1376V66.0688H79.8849C80.1624 66.0688 80.4169 65.5162 80.6303 65.1958H77.458ZM77.458 61.2109H78.0329C78.1174 61.2109 78.2034 61.1889 78.2875 61.1244C78.3942 61.0608 78.9053 60.4215 78.9694 60.3563H77.458V59.3772H79.097V62.1912H77.458V61.2109ZM74.5201 61.2109H76.1158V62.1909H74.5201V61.2109ZM74.5201 59.3772H76.1158V60.3563H74.5201V59.3772ZM82.5196 65.0914V62.9672H87.1191C87.5343 62.9672 88.2816 62.2784 88.3013 61.9335V58.5263H81.1613V65.0154C81.1613 65.5339 81.4732 66.0721 82.0556 66.0721H87.5058C87.9168 66.0721 88.4105 65.4157 88.4956 65.0914H82.5196ZM85.4382 59.4955H86.9555V61.997H85.4382V59.4955ZM82.5297 59.4955H84.1242V61.997H82.5297V59.4955ZM91.1566 65.0914V62.9672H95.7571C96.174 62.9672 96.92 62.2784 96.9422 61.9335V58.5263H89.8023V65.0154C89.8023 65.5339 90.1141 66.0721 90.6959 66.0721H96.1445C96.5558 66.0721 97.0496 65.4157 97.1366 65.0914H91.1566ZM94.0779 59.4955H95.5958V61.997H94.0779V59.4955ZM91.17 59.4955H92.7619V61.997H91.17V59.4955ZM101.69 63.7056V63.4691H102.225V63.6725H105.468C105.468 63.6725 105.389 64.1098 104.681 64.1098H102.259V65.2827C102.259 66.1723 101.69 66.2788 101.69 66.2788V64.1432H97.8264V63.7056H101.69Z" fill="#FF6600"/>
<path d="M99.0627 64.7051H99.6399C99.6399 64.7051 99.0389 65.4801 98.8576 65.6838C98.677 65.8849 98.4361 66.2076 98.0873 66.2076C97.892 66.2076 97.8279 66.2122 97.8279 66.2122L99.0627 64.7051ZM104.577 64.7051H104C104 64.7051 104.602 65.4801 104.782 65.6838C104.963 65.8849 105.204 66.2076 105.552 66.2076C105.747 66.2076 105.811 66.2122 105.811 66.2122L104.577 64.7051ZM104.648 59.2691C105.338 59.2691 105.469 58.8305 105.469 58.8305H102.234L102.47 58.5266H101.938L101.667 58.8646H99.4921L99.7601 58.5266H99.2055L97.8276 60.3202H98.4172V62.7722C98.4172 62.7722 98.4774 62.7801 98.5566 62.7722C99.4123 62.7722 99.4842 62.6599 99.4842 62.6599H104.648C105.335 62.6599 105.401 62.2495 105.401 62.2495H102.189V61.5325H104.648C105.325 61.5325 105.435 61.0978 105.435 61.0978H102.189V60.3913H104.648C105.325 60.3913 105.435 59.9484 105.435 59.9484H102.189V59.2691H104.648ZM98.9165 61.5656H101.657V62.2488H98.9165V61.5656ZM98.9165 60.4591H101.657V61.1322H98.9165V60.4591ZM101.657 59.9812H98.9165L98.9139 59.7375L99.054 59.5387L99.2379 59.3029H101.657V59.9812ZM107.086 58.5265V66.1423H113.487C113.969 66.1423 114.152 65.6847 114.128 65.2111V58.5265H107.086ZM113.61 65.1557C113.61 65.4315 113.55 65.6474 113.188 65.6474H107.564V58.9686H113.61V65.1557Z" fill="#FF6600"/>
<path d="M109.939 61.6152L108.321 64.5359C108.321 64.5359 108.864 64.6381 109.111 64.1232L110.487 61.6221L109.939 61.6152Z" fill="#FF6600"/>
<path d="M111.96 63.9922C111.96 64.1507 111.903 64.2294 111.79 64.2294H111.25V64.6584H111.937C112.361 64.6584 112.5 64.5038 112.478 64.0302C112.478 64.0302 112.474 61.1841 112.478 61.1841C113.011 61.1841 113.044 60.7377 113.044 60.7377L112.478 60.7432V59.7622H111.96V60.7432H108.32V61.2169H111.96V63.9922Z" fill="#FF6600"/>
</svg>
