<svg width="169" height="113" viewBox="0 0 169 113" fill="none" xmlns="http://www.w3.org/2000/svg">
<path fill-rule="evenodd" clip-rule="evenodd" d="M100.334 67.2523C92.8025 72.8098 81.8854 75.775 72.486 75.775C59.3064 75.775 47.4415 70.8951 38.4651 62.7792C37.76 62.1409 38.3918 61.2712 39.2381 61.7683C48.9253 67.4105 60.9031 70.8048 73.2758 70.8048C81.6202 70.8048 90.7996 69.0766 99.2399 65.4902C100.515 64.948 101.581 66.326 100.334 67.2523Z" fill="#FF9900"/>
<path fill-rule="evenodd" clip-rule="evenodd" d="M103.468 63.6651C102.508 62.4338 97.1034 63.0833 94.6773 63.3714C93.9382 63.4618 93.8255 62.8179 94.4912 62.3548C98.7959 59.3219 105.86 60.1973 106.683 61.2139C107.507 62.2362 106.469 69.3242 102.424 72.7073C101.803 73.2269 101.211 72.9502 101.487 72.2611C102.396 69.9907 104.432 64.902 103.468 63.6651Z" fill="#FF9900"/>
<path fill-rule="evenodd" clip-rule="evenodd" d="M94.846 40.9433V37.9952C94.846 37.549 95.1846 37.2497 95.5908 37.2497H108.776C109.199 37.2497 109.538 37.5546 109.538 37.9952V40.5197C109.532 40.9433 109.177 41.4969 108.545 42.3723L101.712 52.1374C104.251 52.0754 106.931 52.4537 109.233 53.7528C109.752 54.0464 109.893 54.4757 109.933 54.8992V58.0451C109.933 58.4743 109.459 58.977 108.962 58.7172C104.906 56.588 99.5176 56.3564 95.0323 58.7398C94.5753 58.9884 94.0957 58.4913 94.0957 58.0621V55.0744C94.0957 54.5943 94.1013 53.7753 94.5808 53.0468L102.496 41.6833H95.6076C95.1846 41.6833 94.846 41.384 94.846 40.9433ZM46.7488 59.3384H42.7373C42.3536 59.3103 42.0491 59.0222 42.0208 58.655V38.0461C42.0208 37.6337 42.3649 37.3061 42.7937 37.3061H46.5343C46.9236 37.323 47.2339 37.6224 47.2622 37.9951V40.6893H47.3355C48.3115 38.0856 50.1451 36.8715 52.6163 36.8715C55.1269 36.8715 56.6954 38.0856 57.8238 40.6893C58.7942 38.0856 61.0002 36.8715 63.3642 36.8715C65.0454 36.8715 66.8847 37.5661 68.0074 39.1249C69.2769 40.8587 69.0174 43.3777 69.0174 45.586L69.0117 58.593C69.0117 59.0054 68.6676 59.3386 68.2388 59.3386H64.233C63.8325 59.3104 63.5108 58.9885 63.5108 58.593V47.67C63.5108 46.8002 63.5899 44.6313 63.3981 43.8069C63.099 42.4231 62.202 42.0334 61.0396 42.0334C60.0692 42.0334 59.0537 42.6829 58.6418 43.7222C58.23 44.7615 58.2696 46.5009 58.2696 47.67V58.5929C58.2696 59.0052 57.9253 59.3384 57.4966 59.3384H53.4908C53.0846 59.3103 52.7686 58.9884 52.7686 58.5929L52.763 47.67C52.763 45.3713 53.141 41.9883 50.2918 41.9883C47.4089 41.9883 47.5217 45.2865 47.5217 47.67V58.5929C47.5217 59.0052 47.1775 59.3384 46.7488 59.3384ZM120.889 36.8713C126.841 36.8713 130.063 41.9882 130.063 48.4946C130.063 54.7806 126.503 59.7678 120.889 59.7678C115.044 59.7678 111.862 54.6507 111.862 48.2743C111.862 41.8583 115.084 36.8713 120.889 36.8713ZM120.923 41.0789C117.967 41.0789 117.78 45.1115 117.78 47.6247C117.78 50.1438 117.741 55.5205 120.889 55.5205C123.998 55.5205 124.145 51.183 124.145 48.5397C124.145 46.8002 124.071 44.7217 123.546 43.0726C123.095 41.638 122.198 41.0789 120.923 41.0789H120.923ZM137.781 59.3384H133.787C133.386 59.3103 133.064 58.9884 133.064 58.5929L133.059 37.9782C133.093 37.5999 133.426 37.3061 133.832 37.3061H137.55C137.9 37.323 138.187 37.5604 138.266 37.8822V41.0338H138.34C139.462 38.2155 141.036 36.8713 143.807 36.8713C145.606 36.8713 147.361 37.5207 148.489 39.2998C149.539 40.9489 149.539 43.7222 149.539 45.7159V58.6889C149.494 59.0504 149.161 59.3384 148.766 59.3384H144.743C144.376 59.3103 144.072 59.0391 144.032 58.6889V47.4949C144.032 45.2414 144.292 41.9429 141.522 41.9429C140.546 41.9429 139.649 42.5982 139.203 43.5922C138.639 44.8518 138.565 46.1055 138.565 47.495V58.5929C138.56 59.0052 138.21 59.3384 137.781 59.3384ZM84.3352 49.4943C84.3352 51.0587 84.3747 52.3634 83.5847 53.7526C82.9473 54.8823 81.9318 55.5769 80.8089 55.5769C79.2688 55.5769 78.366 54.4023 78.366 52.6683C78.366 49.2457 81.4296 48.6245 84.3352 48.6245V49.4943ZM88.3803 59.282C88.1153 59.5192 87.7316 59.5362 87.4326 59.378C86.1011 58.271 85.8585 57.7571 85.1307 56.7009C82.9303 58.9488 81.3676 59.6209 78.5183 59.6209C75.1388 59.6209 72.5153 57.5367 72.5153 53.3631C72.5153 50.1042 74.2756 47.8846 76.7919 46.8002C78.9697 45.8401 82.0107 45.6706 84.3353 45.4051V44.8856C84.3353 43.9311 84.4085 42.8015 83.8443 41.9769C83.3592 41.2371 82.4225 40.9321 81.5932 40.9321C80.0642 40.9321 78.7046 41.717 78.3717 43.3437C78.3039 43.7052 78.0387 44.0609 77.6721 44.0779L73.7848 43.66C73.4576 43.5866 73.0908 43.3211 73.1867 42.8185C74.0782 38.0969 78.3435 36.6736 82.1576 36.6736C84.1096 36.6736 86.6597 37.1932 88.2001 38.673C90.152 40.4973 89.9659 42.9314 89.9659 45.5803V51.8381C89.9659 53.7189 90.7446 54.5433 91.4779 55.56C91.732 55.9215 91.7882 56.3564 91.4611 56.6275C90.643 57.3109 89.1873 58.5816 88.3862 59.2933L88.3806 59.282H88.3803ZM31.7469 49.4943C31.7469 51.0587 31.7864 52.3634 30.9964 53.7526C30.359 54.8823 29.349 55.5769 28.2206 55.5769C26.6805 55.5769 25.7833 54.4023 25.7833 52.6683C25.7833 49.2457 28.8469 48.6245 31.7469 48.6245V49.4943ZM35.792 59.282C35.527 59.5192 35.1433 59.5362 34.8443 59.378C33.5128 58.271 33.2758 57.7571 32.5424 56.7009C30.342 58.9488 28.785 59.6209 25.93 59.6209C22.5562 59.6209 19.927 57.5367 19.927 53.3631C19.927 50.1042 21.693 47.8846 24.2036 46.8002C26.3815 45.8401 29.4224 45.6706 31.7469 45.4051V44.8856C31.7469 43.9311 31.8202 42.8015 31.2616 41.9769C30.7708 41.2371 29.8343 40.9321 29.0105 40.9321C27.4816 40.9321 26.1163 41.717 25.7833 43.3437C25.7156 43.7052 25.4505 44.0609 25.0894 44.0779L21.1965 43.66C20.8692 43.5866 20.5082 43.3211 20.5984 42.8185C21.4955 38.0969 25.7552 36.6736 29.5691 36.6736C31.5211 36.6736 34.0713 37.1932 35.6116 38.673C37.5636 40.4973 37.3775 42.9314 37.3775 45.5803V51.8381C37.3775 53.7189 38.156 54.5433 38.8895 55.56C39.1491 55.9215 39.2055 56.3564 38.8782 56.6275C38.0601 57.3109 36.6046 58.5816 35.8035 59.2933L35.7922 59.282" fill="black"/>
</svg>
