<svg width="170" height="113" viewBox="0 0 170 113" fill="none" xmlns="http://www.w3.org/2000/svg">
<path d="M35.4748 48.2542L27.9541 53.0597L35.4748 57.8652L27.9541 62.6707L20.4334 57.8252L27.9541 53.0197L20.4334 48.2542L27.9541 43.4487L35.4748 48.2542ZM27.9141 64.1925L35.4347 59.387L42.9554 64.1925L35.4347 68.998L27.9141 64.1925ZM35.4748 57.8252L42.9954 53.0197L35.4748 48.2542L42.9554 43.4487L50.4761 48.2542L42.9554 53.0597L50.4761 57.8652L42.9554 62.6707L35.4748 57.8252Z" fill="#0061FF"/>
<path d="M56.3555 48.2541H62.436C66.3164 48.2541 69.5167 50.4967 69.5167 55.6226V56.7038C69.5167 61.8697 66.5164 64.1924 62.556 64.1924H56.3555V48.2541ZM59.7558 51.1374V61.269H62.356C64.5562 61.269 66.0363 59.8274 66.0363 56.6237V55.7827C66.0363 52.5791 64.4762 51.1374 62.236 51.1374H59.7558ZM71.3168 51.2976H74.0371L74.4771 54.301C74.9972 52.2587 76.3173 51.1775 78.7175 51.1775H79.5576V54.6214H78.1574C75.3972 54.6214 74.7171 55.5825 74.7171 58.3056V64.2324H71.3568V51.2976H71.3168ZM80.2376 58.0253V57.6649C80.2376 53.3399 82.9979 50.9772 86.7582 50.9772C90.5986 50.9772 93.2788 53.3399 93.2788 57.6649V58.0253C93.2788 62.2702 90.6786 64.5528 86.7582 64.5528C82.5979 64.5127 80.2376 62.2702 80.2376 58.0253ZM89.8385 57.9853V57.6649C89.8385 55.2621 88.6384 53.8205 86.7182 53.8205C84.8381 53.8205 83.5979 55.142 83.5979 57.6649V57.9853C83.5979 60.3079 84.7981 61.6294 86.7182 61.6294C88.6384 61.5894 89.8385 60.3079 89.8385 57.9853ZM95.039 51.2976H97.8392L98.1593 53.7404C98.8393 52.0985 100.279 50.9772 102.4 50.9772C105.68 50.9772 107.84 53.3399 107.84 57.7049V58.0653C107.84 62.3102 105.44 64.5528 102.4 64.5528C100.359 64.5528 98.9593 63.6317 98.2793 62.15V68.6775H94.999L95.039 51.2976ZM104.44 57.9853V57.7049C104.44 55.142 103.12 53.8605 101.36 53.8605C99.4794 53.8605 98.2393 55.3022 98.2393 57.7049V57.9452C98.2393 60.2278 99.4394 61.6695 101.32 61.6695C103.24 61.6294 104.44 60.388 104.44 57.9853ZM112.801 61.8297L112.521 64.1924H109.64V46.9727H112.921V53.5802C113.641 51.8983 115.081 50.9772 117.121 50.9772C120.201 51.0173 122.481 53.1397 122.481 57.4246V57.8251C122.481 62.11 120.321 64.5528 117.041 64.5528C114.881 64.5127 113.481 63.5116 112.801 61.8297ZM119.041 57.8251V57.5047C119.041 55.142 117.761 53.8205 115.961 53.8205C114.121 53.8205 112.841 55.3022 112.841 57.5448V57.8251C112.841 60.2278 114.081 61.6294 115.921 61.6294C117.881 61.6294 119.041 60.388 119.041 57.8251ZM123.922 58.0253V57.6649C123.922 53.3399 126.682 50.9772 130.442 50.9772C134.283 50.9772 136.963 53.3399 136.963 57.6649V58.0253C136.963 62.2702 134.323 64.5528 130.442 64.5528C126.282 64.5127 123.922 62.2702 123.922 58.0253ZM133.562 57.9853V57.6649C133.562 55.2621 132.362 53.8205 130.442 53.8205C128.562 53.8205 127.322 55.142 127.322 57.6649V57.9853C127.322 60.3079 128.522 61.6294 130.442 61.6294C132.362 61.5894 133.562 60.3079 133.562 57.9853ZM141.363 57.5047L136.843 51.2976H140.723L143.323 55.1821L145.964 51.2976H149.804L145.204 57.4647L150.044 64.1924H146.244L143.283 59.9075L140.403 64.1924H136.443L141.363 57.5047Z" fill="black"/>
</svg>
