<svg width="169" height="113" viewBox="0 0 169 113" fill="none" xmlns="http://www.w3.org/2000/svg">
<path d="M70.9681 51.8433H75.0693V64.7444H70.9681V51.8433Z" fill="black"/>
<path d="M75.9331 51.8442H79.8819V53.6109H79.9581C80.9103 52.2255 82.142 51.4756 83.9322 51.4756C86.751 51.4756 88.4143 53.4965 88.4143 56.3691V64.758H84.3132V57.1953C84.3132 55.8353 83.6275 54.9074 82.2943 54.9074C80.9357 54.9074 80.0342 56.0386 80.0342 57.6274V64.758H75.9331V51.8442Z" fill="black"/>
<path d="M73.0212 50.8662C74.3816 50.8662 75.4844 49.7622 75.4844 48.4004C75.4844 47.0386 74.3816 45.9346 73.0212 45.9346C71.6608 45.9346 70.558 47.0386 70.558 48.4004C70.558 49.7622 71.6608 50.8662 73.0212 50.8662Z" fill="black"/>
<path d="M117.26 51.6541C117.145 51.6414 117.006 51.6414 116.853 51.6414C115.292 51.6414 114.238 52.3277 113.324 53.853H113.247V51.8447H109.324V64.7458H113.425V58.9499C113.425 56.268 114.911 55.0223 117.26 55.2384V51.6541Z" fill="black"/>
<path d="M137.396 56.6106C135.758 56.3056 134.298 56.1785 134.298 55.276C134.298 54.4753 135.072 54.0939 136.088 54.0939C137.218 54.0939 138.005 54.4498 138.158 55.6065H141.929C141.726 53.0644 139.77 51.4756 136.113 51.4756C133.066 51.4756 130.552 52.8864 130.552 55.6065C130.552 58.6316 132.939 59.229 135.187 59.6103C136.901 59.9153 138.462 60.0424 138.462 61.1991C138.462 62.0253 137.688 62.4829 136.444 62.4829C135.212 62.4829 134.387 61.9617 134.133 60.894H130.222C130.514 63.5505 132.838 65.152 136.469 65.152C139.846 65.152 142.335 63.6903 142.335 60.8686C142.322 57.5639 139.656 56.9919 137.396 56.6106Z" fill="black"/>
<path d="M123.849 62.179C122.161 62.179 121.208 61.0986 120.954 59.3573H130.211C130.236 56.7389 129.487 54.4892 127.951 53.0783C126.846 52.0742 125.386 51.4641 123.545 51.4641C119.621 51.4641 116.929 54.4129 116.929 58.2642C116.929 62.1663 119.545 65.1151 123.799 65.1151C125.437 65.1151 126.744 64.683 127.824 63.9331C128.954 63.1577 129.715 62.0392 129.982 60.8826H125.982C125.64 61.696 124.941 62.179 123.849 62.179ZM123.621 54.3875C124.954 54.3875 125.906 55.3662 126.059 56.9042H120.98C121.259 55.3789 122.072 54.3875 123.621 54.3875Z" fill="black"/>
<path d="M149.548 61.7088C149.358 61.7215 149.104 61.7215 148.863 61.7215C147.986 61.7215 147.428 61.4673 147.428 60.4631V54.413H149.548V51.8454H147.428V47.7654H143.428V51.8454H142.171V54.413H143.428V61.3402C143.428 64.111 145.142 64.8991 147.529 64.8991C148.444 64.8991 149.129 64.8355 149.548 64.7466V61.7088Z" fill="black"/>
<path d="M95.738 61.7088C95.573 61.7088 95.3825 61.7215 95.2048 61.7215C94.3287 61.7215 93.77 61.4673 93.77 60.4631V54.413H95.738V51.8454H93.77V47.7654H89.7704V51.8454H88.4372V54.413H89.7704V61.3402C89.7704 64.111 91.4845 64.8991 93.8716 64.8991C94.6842 64.8991 95.319 64.8482 95.738 64.772V61.7088Z" fill="black"/>
<path d="M95.5349 58.2759C95.5349 54.4247 98.2267 51.4758 102.15 51.4758C103.991 51.4758 105.451 52.0859 106.556 53.0901C108.092 54.5009 108.842 56.738 108.816 59.369H99.5599C99.8139 61.1103 100.766 62.1907 102.455 62.1907C103.534 62.1907 104.245 61.7077 104.588 60.907H108.588C108.308 62.0636 107.559 63.1694 106.429 63.9575C105.35 64.7074 104.042 65.1396 102.404 65.1396C98.1505 65.1268 95.5349 62.178 95.5349 58.2759ZM104.677 56.9159C104.524 55.3779 103.572 54.3992 102.239 54.3992C100.677 54.3992 99.8773 55.3779 99.598 56.9159H104.677Z" fill="black"/>
<path d="M56.5423 46.7351H63.6654C65.8493 46.7351 67.4618 47.3452 68.5792 48.4002C69.7346 49.4806 70.3949 51.0185 70.3949 52.8361C70.3949 56.2934 68.0078 58.7338 64.3003 58.7338H60.6943V64.7585H56.5423V46.7351ZM63.8432 55.2003C65.4557 55.2003 66.3572 54.247 66.3572 52.8107C66.3572 51.3744 65.4303 50.4974 63.8432 50.4974H60.6943V55.213H63.8432V55.2003Z" fill="black"/>
<path d="M35.3633 71.6608C43.8833 71.6608 50.7902 64.7467 50.7902 56.2176C50.7902 47.6886 43.8833 40.7744 35.3633 40.7744C26.8432 40.7744 19.9363 47.6886 19.9363 56.2176C19.9363 64.7467 26.8432 71.6608 35.3633 71.6608Z" fill="white"/>
<path d="M35.3633 40.7744C26.8308 40.7744 19.9363 47.6889 19.9363 56.2176C19.9363 62.7635 23.9994 68.3561 29.7385 70.6059C29.5988 69.3857 29.4845 67.5045 29.7892 66.1699C30.0686 64.9624 31.5922 58.4928 31.5922 58.4928C31.5922 58.4928 31.1351 57.5649 31.1351 56.2049C31.1351 54.0568 32.3794 52.4553 33.9285 52.4553C35.249 52.4553 35.8838 53.4467 35.8838 54.6288C35.8838 55.9507 35.0458 57.9335 34.6014 59.7766C34.2332 61.3145 35.376 62.5729 36.8869 62.5729C39.6295 62.5729 41.7372 59.6749 41.7372 55.5058C41.7372 51.8071 39.0835 49.2269 35.2871 49.2269C30.8939 49.2269 28.3164 52.5189 28.3164 55.9253C28.3164 57.2472 28.8243 58.6707 29.4591 59.4461C29.5861 59.5986 29.5988 59.7384 29.5607 59.8909C29.4464 60.3739 29.1798 61.4289 29.129 61.645C29.0655 61.9246 28.9004 61.9882 28.6084 61.8484C26.7039 60.9332 25.5103 58.1115 25.5103 55.849C25.5103 50.9809 29.0401 46.5068 35.7061 46.5068C41.0515 46.5068 45.2162 50.32 45.2162 55.4296C45.2162 60.7553 41.8642 65.0387 37.217 65.0387C35.6553 65.0387 34.1824 64.2252 33.6872 63.2592C33.6872 63.2592 32.9127 66.208 32.7223 66.9325C32.3794 68.2799 31.4399 69.9576 30.805 70.9872C32.2525 71.432 33.7761 71.6735 35.376 71.6735C43.8957 71.6735 50.8029 64.7591 50.8029 56.2303C50.7902 47.6889 43.883 40.7744 35.3633 40.7744Z" fill="black"/>
</svg>
