<svg width="170" height="113" viewBox="0 0 170 113" fill="none" xmlns="http://www.w3.org/2000/svg">
<path d="M32.1601 58.0191H23.4867V55.8648H34.6708C34.3774 54.9508 33.4318 54.1021 31.7688 54.1021H23.6498C21.7912 54.1021 20.7152 54.7876 20.7152 56.2891V57.8885C20.7152 59.1942 21.8238 59.9449 23.4541 59.9449H32.2253V62.2298H20.4217C20.7152 63.4702 21.6607 64.123 23.3563 64.123H32.1927C34.0513 64.123 34.9643 63.4049 34.9643 61.8707V60.2713C34.9643 58.8678 33.8883 58.117 32.1601 58.0191ZM49.8656 54.1348H39.1706V64.1556H42.203V60.304H50.0938C52.2785 60.304 53.4849 59.5532 53.4849 57.7906V56.6808C53.4523 55.0487 52.0828 54.1348 49.8656 54.1348ZM50.8438 57.3336C50.8438 58.0517 50.7134 58.4434 49.5395 58.4434H42.203L42.2356 55.8321H49.4091C50.7134 55.8321 50.8764 56.2238 50.8764 56.9093V57.3336H50.8438ZM63.5604 60.2387H57.1043L55.5066 61.936H64.8321L66.4298 64.1556H70.0166L62.2888 53.7104L60.4628 55.9627L63.5604 60.2387ZM75.8206 55.8648H87.1677C86.8743 54.6897 85.733 54.1021 84.1027 54.1021H75.6249C74.1576 54.1021 72.7555 54.6897 72.7555 56.2891V61.9034C72.7555 63.5028 74.1576 64.0903 75.6249 64.0903H84.2005C86.1569 64.0903 86.8416 63.5354 87.1677 62.1971H75.8206V55.8648ZM100.471 59.1942V57.4968H91.3088V64.1556H104.841V62.2624H94.3738V59.1942H100.471ZM91.6348 54.1348H105.297V55.8974H91.6348V54.1348ZM113.71 54.1348H108.949L114.557 58.2476C115.373 57.6927 116.318 57.1051 117.166 56.6155L113.71 54.1348ZM120.622 59.2594C119.807 59.8143 118.992 60.4345 118.209 61.0221L122.448 64.123H127.241L120.622 59.2594Z" fill="black"/>
<path d="M150.036 48.291C123.95 49.7925 111.886 60.9558 109.179 63.5997L108.625 64.122H113.451C126.493 51.0329 145.242 48.7154 150.036 48.291Z" fill="black"/>
</svg>
