<svg width="70" height="72" viewBox="0 0 70 72" fill="none" xmlns="http://www.w3.org/2000/svg">
<path d="M9.44669 0H60.4742C65.7352 0 70 4.26484 70 9.52578V41.4118C70 46.5882 65.749 50.8235 60.5533 50.8235H40.3374V61.4588H48.1781C51.1066 61.4588 53.4683 63.8118 53.4683 66.7294C53.4683 69.6471 51.1066 72 48.1781 72H21.8219C18.8934 72 16.5317 69.6471 16.5317 66.7294C16.5317 63.8118 18.8934 61.4588 21.8219 61.4588H29.6626V50.8235H9.44669C4.25101 50.8235 0 46.5882 0 41.4118V9.41177C0 4.23529 4.25101 0 9.44669 0Z" fill="#74DCDF"/>
</svg>
