<svg width="48" height="48" viewBox="0 0 48 48" fill="none" xmlns="http://www.w3.org/2000/svg">
<path d="M42 0H6C2.691 0 0 2.691 0 6V42C0 45.309 2.691 48 6 48H42C45.309 48 48 45.309 48 42V6C48 2.691 45.309 0 42 0Z" fill="#74DCDF"/>
<path fill-rule="evenodd" clip-rule="evenodd" d="M30.3485 21.2696H26.4146V18.1571C26.4146 17.298 27.1196 17.3789 27.9882 17.3789H29.5618V13.4883H26.4146C25.1626 13.4883 23.9619 13.9802 23.0766 14.8557C22.1913 15.7313 21.694 16.9188 21.694 18.1571V21.2696H18.5469V25.1602H21.694V33.7197H26.4146V25.1602H28.775L30.3485 21.2696Z" fill="white"/>
</svg>
