<svg width="26" height="24" viewBox="0 0 26 24" fill="none" xmlns="http://www.w3.org/2000/svg">
<path d="M10.7223 19.8994H1" stroke="#00788A" stroke-width="2" stroke-linecap="round" stroke-linejoin="round"/>
<path fill-rule="evenodd" clip-rule="evenodd" d="M16.8242 19.9007C16.8242 22.9759 17.847 24.0001 20.9126 24.0001C23.9782 24.0001 25.001 22.9759 25.001 19.9007C25.001 16.8254 23.9782 15.8013 20.9126 15.8013C17.847 15.8013 16.8242 16.8254 16.8242 19.9007Z" fill="#00788A"/>
<path d="M15.2793 4.10104H25.0003" stroke="#00788A" stroke-width="2" stroke-linecap="round" stroke-linejoin="round"/>
<path fill-rule="evenodd" clip-rule="evenodd" d="M9.17808 4.09939C9.17808 1.02552 8.15531 0 5.08971 0C2.02276 0 1 1.02552 1 4.09939C1 7.17461 2.02276 8.19878 5.08971 8.19878C8.15531 8.19878 9.17808 7.17461 9.17808 4.09939Z" fill="#00788A"/>
</svg>
