<svg width="54" height="52" viewBox="0 0 54 52" fill="none" xmlns="http://www.w3.org/2000/svg">
<path d="M0 26.9675C0 22.8494 3.3384 19.511 7.45652 19.511H11.1848V38.6849H7.45652C3.3384 38.6849 0 35.3465 0 31.2284V26.9675Z" fill="#5CC5C7"/>
<path d="M53.2609 26.9675C53.2609 22.8494 49.9225 19.511 45.8043 19.511H42.0761V38.6849H45.8043C49.9225 38.6849 53.2609 35.3465 53.2609 31.2284V26.9675Z" fill="#5CC5C7"/>
<path d="M21.3043 48.8043C21.3043 47.0394 22.7351 45.6086 24.5 45.6086H28.7609C30.5258 45.6086 31.9565 47.0394 31.9565 48.8043C31.9565 50.5692 30.5258 51.9999 28.7609 51.9999H24.5C22.7351 51.9999 21.3043 50.5692 21.3043 48.8043Z" fill="#5CC5C7"/>
<path d="M19.7064 48.0055H18.1086C13.5057 48.0055 9.68214 44.6691 8.92438 40.2827H7.30621C8.07938 45.5554 12.6213 49.6034 18.1086 49.6034H19.7064V48.0055Z" fill="#5CC5C7"/>
<path d="M53.2609 26.9675C53.2609 22.8494 49.9225 19.511 45.8043 19.511H42.0761V38.6849H45.8043C49.9225 38.6849 53.2609 35.3465 53.2609 31.2284V26.9675Z" fill="#5CC5C7"/>
<path d="M9.05435 29.6304V20.5761C9.05435 10.8691 16.9234 3 26.6304 3V3C36.3374 3 44.2065 10.8691 44.2065 20.5761V29.6304" stroke="#5CC5C7" stroke-width="4.26087"/>
</svg>
