<svg width="48" height="48" viewBox="0 0 48 48" fill="none" xmlns="http://www.w3.org/2000/svg">
<path d="M37.2262 0H10.7738C4.8236 0 0 4.8236 0 10.7738V37.2262C0 43.1764 4.8236 48 10.7738 48H37.2262C43.1764 48 48 43.1764 48 37.2262V10.7738C48 4.8236 43.1764 0 37.2262 0Z" fill="#74DCDF"/>
<path d="M18.3941 20.7638H14.5533V32.0116H18.3941V20.7638Z" fill="white"/>
<path d="M17.7484 15.5148C17.3823 15.2931 16.9521 15.1748 16.5121 15.1748C16.2184 15.1748 15.9277 15.2275 15.6566 15.3298C15.3855 15.4321 15.1394 15.5821 14.9323 15.7711C14.7253 15.9601 14.5615 16.1843 14.4503 16.431C14.3391 16.6776 14.2827 16.9418 14.2844 17.2082C14.2869 17.6076 14.4197 17.9974 14.666 18.3283C14.9123 18.6593 15.2611 18.9166 15.6684 19.0678C16.0757 19.2191 16.5232 19.2575 16.9545 19.1782C17.3857 19.0988 17.7815 18.9054 18.0917 18.6222C18.402 18.3389 18.6129 17.9787 18.6978 17.5868C18.7827 17.1949 18.7379 16.789 18.5689 16.4202C18.3999 16.0515 18.1144 15.7364 17.7484 15.5148Z" fill="white"/>
<path d="M24.5593 20.7633H20.8593L20.8465 32.0343H24.6873V26.4685C24.6873 25.0044 24.9946 23.5868 26.9918 23.5868C28.989 23.5868 28.989 25.2717 28.989 26.5731V32.0111H32.8298V25.841C32.8298 22.8083 32.0489 20.4844 28.208 20.4844C27.476 20.4584 26.7499 20.6133 26.1073 20.9325C25.4647 21.2518 24.9297 21.7234 24.5593 22.2971V20.7633Z" fill="white"/>
</svg>
