<svg width="48" height="48" viewBox="0 0 48 48" fill="none" xmlns="http://www.w3.org/2000/svg">
<path d="M48 41.3333C48 43.1014 47.2976 44.7971 46.0474 46.0474C44.7971 47.2976 43.1014 48 41.3333 48H6.66667C4.89856 48 3.20286 47.2976 1.95262 46.0474C0.702379 44.7971 0 43.1014 0 41.3333V6.66667C0 4.89856 0.702379 3.20286 1.95262 1.95262C3.20286 0.702379 4.89856 0 6.66667 0H41.3333C43.1014 0 44.7971 0.702379 46.0474 1.95262C47.2976 3.20286 48 4.89856 48 6.66667V41.3333Z" fill="#74DCDF"/>
<path d="M33.272 18.5524C32.5905 18.8647 31.7273 19.1578 30.9538 19.2552C31.7405 18.7728 32.9884 17.7682 33.272 16.8594C32.5372 17.3058 31.2081 17.7826 30.3411 17.9551C29.6487 17.1964 28.6612 16.8594 27.567 16.8594C25.4652 16.8594 23.9993 18.7002 23.9993 20.8524V22.4496C20.9084 22.4496 17.8947 20.0163 16.0193 17.658C15.6802 18.2524 15.5022 18.9301 15.5039 19.6202C15.5039 21.0728 16.7952 22.5471 17.8175 23.2482C17.1939 23.2283 16.0132 22.7363 15.4993 22.4496V22.4952C15.4993 24.3855 16.7828 25.6688 18.5222 26.0266C18.2046 26.1168 17.8175 26.4427 16.3277 26.4427C16.8114 27.988 19.2432 28.805 20.9084 28.8385C19.6056 29.8823 17.2827 30.4357 15.4993 30.4357C15.191 30.4357 15.0241 30.4533 14.7266 30.4173C16.4096 31.5194 18.7602 32.0329 20.9084 32.0329C27.907 32.0329 31.7266 26.5082 31.7266 21.3555C31.7266 21.1862 31.7212 20.6192 31.7127 20.4531C32.4607 19.9085 32.7636 19.3383 33.272 18.5524Z" fill="white"/>
</svg>
